<svg class="logo bribe-logo" style="height: 3rem;" clip-rule="evenodd" fill-rule="evenodd" stroke-linejoin="round" stroke-miterlimit="2" viewBox="0 0 275 275" xmlns="http://www.w3.org/2000/svg">
  <path d="m0 0h274.235v274.235h-274.235z" fill="none"></path>
  <g fill="#fff" transform="matrix(.182823 0 0 .182823 .00033 -.000223)">
    <path d="m1045.99 640.903c10.27-5.667 52.69-24.612 73.73 34.972 76.56 211.089-18.88 459.805-224.844 566.155-64.9 33.52-134.232 49.81-202.823 50.9l-10.282.05c-147.274-.91-289.948-71.67-376.607-192.36-41.653-58.01 19.044-82.21 19.044-82.21l719.502-376.159z"></path>
    <path d="m828.497 207.195c143.643 4.069 281.703 74.316 366.343 192.183 41.65 58.009-19.05 82.21-19.05 82.21l-719.497 376.161s-51.972 34.472-76.012-33.624l-3.463-9.922c-70.091-208.892 25.559-451.541 228.306-556.235 68.14-35.186 141.165-51.396 213.105-50.951z"></path>
  </g>
</svg>